HIERARCHY
ROOT root
{
	OFFSET	0	13.1	24.9
	CHANNELS 6  Xposition Yposition Zposition Xrotation Yrotation Zrotation
	JOINT spine_1
	{
		OFFSET	0	9.99999	0
		CHANNELS 3  Xrotation Yrotation Zrotation
		JOINT spine_2
		{
			OFFSET	0	112	-10
			CHANNELS 3  Xrotation Yrotation Zrotation
			JOINT spine_3
			{
				OFFSET	0	206.5	19.3
				CHANNELS 3  Xrotation Yrotation Zrotation
				JOINT spine_4
				{
					OFFSET	0	110.4	14.6
					CHANNELS 3  Xrotation Yrotation Zrotation
					JOINT neck_1
					{
						OFFSET	0	71.8	-50.3
						CHANNELS 3  Xrotation Yrotation Zrotation
						JOINT neck_2
						{
							OFFSET	0	86.2	-25.8
							CHANNELS 3  Xrotation Yrotation Zrotation
							JOINT head_ee
							{
								OFFSET	0	179.8	-8.7
								CHANNELS 3  Xrotation Yrotation Zrotation
								End Site
								{
									OFFSET	1	0	0
								}
							}
						}
					}
					JOINT left_clavicle
					{
						OFFSET	-43.2	22.4	-70.8
						CHANNELS 3  Xrotation Yrotation Zrotation
						JOINT left_shoulder
						{
							OFFSET	-93.9	-5.79999	48.7
							CHANNELS 3  Xrotation Yrotation Zrotation
							JOINT left_elbow
							{
								OFFSET	-291.4	-30.8	15.2
								CHANNELS 3  Xrotation Yrotation Zrotation
								JOINT left_lowarm_twist
								{
									OFFSET	-110.7	-3.89999	13.6
									CHANNELS 3  Xrotation Yrotation Zrotation
									JOINT left_hand
									{
										OFFSET	-110.7	-3.89999	13.6
										CHANNELS 3  Xrotation Yrotation Zrotation
										JOINT left_ee
										{
											OFFSET	-80.8	-5.10001	12.1
											CHANNELS 3  Xrotation Yrotation Zrotation
											End Site
											{
												OFFSET	1	0	0
											}
										}
									}
								}
							}
						}
					}
					JOINT right_clavicle
					{
						OFFSET	43.2	22.4	-70.8
						CHANNELS 3  Xrotation Yrotation Zrotation
						JOINT right_shoulder
						{
							OFFSET	93.9	-5.79999	48.7
							CHANNELS 3  Xrotation Yrotation Zrotation
							JOINT right_elbow
							{
								OFFSET	291.4	-30.8	15.2
								CHANNELS 3  Xrotation Yrotation Zrotation
								JOINT right_lowarm_twist
								{
									OFFSET	110.7	-3.89999	13.6
									CHANNELS 3  Xrotation Yrotation Zrotation
									JOINT right_hand
									{
										OFFSET	110.7	-3.89999	13.6
										CHANNELS 3  Xrotation Yrotation Zrotation
										JOINT right_ee
										{
											OFFSET	80.8	-5.10001	12.1
											CHANNELS 3  Xrotation Yrotation Zrotation
											End Site
											{
												OFFSET	1	0	0
											}
										}
									}
								}
							}
						}
					}
				}
			}
		}
	}
	JOINT left_hip
	{
		OFFSET	-82.8	-127.5	0.300001
		CHANNELS 3  Xrotation Yrotation Zrotation
		JOINT left_knee
		{
			OFFSET	-28.2	-396.7	2.2
			CHANNELS 3  Xrotation Yrotation Zrotation
			JOINT left_ankle
			{
				OFFSET	-11.7	-411.3	35.4
				CHANNELS 3  Xrotation Yrotation Zrotation
				JOINT left_toes
				{
					OFFSET	0	-60	-88.6
					CHANNELS 3  Xrotation Yrotation Zrotation
					JOINT left_foot_ee
					{
						OFFSET	-22.5	-16.5	-42.2
						CHANNELS 3  Xrotation Yrotation Zrotation
						End Site
						{
							OFFSET	1	0	0
						}
					}
				}
			}
		}
	}
	JOINT right_hip
	{
		OFFSET	82.8	-127.5	0.300001
		CHANNELS 3  Xrotation Yrotation Zrotation
		JOINT right_knee
		{
			OFFSET	28.2	-396.7	2.2
			CHANNELS 3  Xrotation Yrotation Zrotation
			JOINT right_ankle
			{
				OFFSET	11.7	-411.3	35.4
				CHANNELS 3  Xrotation Yrotation Zrotation
				JOINT right_toes
				{
					OFFSET	0	-60	-88.6
					CHANNELS 3  Xrotation Yrotation Zrotation
					JOINT right_foot_ee
					{
						OFFSET	22.5	-16.5	-42.2
						CHANNELS 3  Xrotation Yrotation Zrotation
						End Site
						{
							OFFSET	1	0	0
						}
					}
				}
			}
		}
	}
}
MOTION
Frames: 11
Frame Time: 0.02
2489.58 746.085 -1198.7 1.26601 59.9404 -0.206147 0.573287 0.0513698 0.288546 0.573332 0.0329048 0.29123 0.573517 -0.0261192 0.291917 0.573399 0.0203112 0.292378 -10.7163 17.4765 6.69674 -10.9495 28.647 11.1421 -0.0 0.0 -0.0 5.60029 20.6652 10.5973 -27.3763 -16.2922 61.1396 1.04651 -27.4021 0.255139 -31.2704 -2.07417 3.36587 -0.318691 2.60482 -1.01774 -0.0 0.0 -0.0 12.3765 21.3181 -24.7003 -13.3643 13.5292 -64.8151 0.961838 25.4758 -0.217433 53.6533 1.24259 6.49267 0.0140138 -18.6124 -7.6289 0.0 0.0 0.0 2.64637 42.0269 -4.56094 -2.92522 0.10934 0.435564 17.4443 -14.177 -2.58887 -24.7869 0.0 0.0 -0.0 0.0 -0.0 6.67093 6.37231 -0.393502 -9.70825 -0.276364 -1.4625 19.7687 22.6602 3.11204 -19.3527 0.0 0.0 0.0 0.0 0.0 
2488.34 748.22 -1196.24 0.613172 60.1823 0.353639 0.538248 0.0238407 0.240693 0.53828 0.00847651 0.241723 0.538327 -0.0402784 0.238494 0.538248 -0.00210737 0.241862 -9.79451 17.8219 7.08413 -9.93273 28.83 11.3616 -0.0 0.0 -0.0 5.43843 20.5015 10.3629 -26.9905 -16.4447 61.1664 1.14043 -29.4627 0.299863 -31.7933 -2.12362 3.41115 -0.319618 2.8313 -0.927535 -0.0 0.0 -0.0 12.2605 20.928 -24.4639 -13.2922 13.0926 -64.8621 0.950851 25.2211 -0.212729 55.1035 1.35791 6.63834 -0.286686 -19.8169 -6.28329 0.0 0.0 0.0 2.53012 42.3905 -3.99819 -2.01951 0.0778683 0.300128 18.0823 -15.7971 -2.70619 -24.7062 0.0 0.0 -0.0 0.0 -0.0 6.86754 6.09322 -0.0537802 -10.2477 -0.284409 -1.54489 18.8926 23.069 3.0006 -20.3037 0.0 0.0 0.0 0.0 0.0 
2486.4 748.028 -1194.58 0.231265 59.1851 0.589461 0.541876 0.0973071 0.268309 0.541912 0.0800367 0.273957 0.542316 0.0233637 0.284451 0.54221 0.067994 0.277191 -8.76857 18.3375 6.65336 -8.84628 29.851 10.8167 -0.0 0.0 -0.0 5.43465 20.9153 10.3402 -26.9421 -15.9997 61.6214 1.10331 -28.6578 0.28183 -32.1358 -2.15624 3.44057 -0.391949 3.44308 -1.14534 -0.0 0.0 -0.0 12.1485 20.3431 -24.2503 -12.7738 12.9111 -65.1623 0.953189 25.2754 -0.213726 56.9371 1.50896 6.8183 -0.582725 -21.89 -5.3578 0.0 0.0 0.0 2.44324 43.0827 -3.78035 -2.74494 0.103247 0.408567 18.2794 -17.4078 -2.76705 -24.7412 0.0 0.0 -0.0 0.0 -0.0 7.27428 6.03781 -0.0364689 -10.2059 -0.283813 -1.5385 19.5278 23.4694 3.10349 -20.409 0.0 0.0 0.0 0.0 0.0 
2483.27 747.189 -1191.95 -0.127442 59.9379 0.988116 0.532861 0.045531 0.256143 0.532897 0.0291397 0.258521 0.533044 -0.0234367 0.2591 0.53295 0.0177773 0.25955 -8.6137 18.4893 7.45537 -8.64028 29.5436 11.5804 -0.0 0.0 -0.0 5.18422 21.0114 9.96646 -27.1852 -16.2031 61.6147 1.2192 -31.1288 0.339601 -32.6681 -2.20728 3.48592 -0.421945 3.19333 -1.45028 -0.0 0.0 -0.0 12.0713 19.8773 -24.1063 -13.1381 12.5763 -65.1842 0.939321 24.9527 -0.20784 57.3577 1.54442 6.8589 -0.671939 -21.6052 -4.71923 0.0 0.0 0.0 2.84176 42.7891 -3.74642 -2.38539 0.09084 0.354781 18.3954 -18.5512 -2.80917 -24.5693 0.0 0.0 -0.0 0.0 -0.0 7.43815 6.13624 0.418633 -10.648 -0.289875 -1.60606 18.9745 23.8215 3.03572 -20.8342 0.0 0.0 0.0 0.0 0.0 
2481.89 744.247 -1193.33 -0.525221 60.1072 1.55834 0.564293 0.0210251 0.242018 0.564326 0.00558228 0.242865 0.564359 -0.0432347 0.239051 0.56428 -0.00493851 0.242879 -8.21177 18.7001 7.53449 -8.20016 29.7803 11.6034 -0.0 0.0 -0.0 5.04009 20.9384 9.75632 -27.3003 -16.1259 61.6571 1.23907 -31.5403 0.349938 -32.9226 -2.23184 3.50743 -0.443164 3.37009 -1.51496 -0.0 0.0 -0.0 12.1673 19.4652 -24.3554 -13.1011 12.4061 -65.2804 0.91731 24.4371 -0.198644 58.0578 1.6041 6.9259 -0.794766 -22.3162 -4.29528 0.0 0.0 0.0 2.92367 42.9381 -4.00681 -2.62596 0.0991786 0.39076 18.5836 -19.3244 -2.85396 -24.5141 0.0 0.0 -0.0 0.0 -0.0 7.6373 6.08442 0.149 -10.5015 -0.287924 -1.58366 19.3084 24.2112 3.0962 -20.8672 0.0 0.0 0.0 0.0 0.0 
2476.31 742.63 -1193.31 -1.4847 59.9081 2.62272 0.534247 0.061681 0.340219 0.534311 0.0399071 0.343454 0.534576 -0.0299578 0.344465 0.534411 0.0248196 0.344873 -8.04661 18.9609 8.09583 -7.99534 29.8335 12.1612 -0.0 0.0 -0.0 5.09534 21.6771 9.8131 -26.9096 -16.2205 61.2993 1.16815 -30.0556 0.313623 -33.1288 -2.2518 3.52478 -0.478834 3.30118 -1.78028 -0.0 0.0 -0.0 12.0908 19.2288 -24.195 -13.7772 12.0816 -65.3946 0.922251 24.5532 -0.200693 58.9318 1.67975 7.00852 -0.803312 -23.2745 -4.64297 0.0 0.0 0.0 3.05093 43.4885 -4.16139 -2.68889 0.101335 0.400178 19.3536 -19.3685 -2.96135 -24.2487 0.0 0.0 -0.0 0.0 -0.0 7.128 6.08388 -0.0637106 -9.01599 -0.264907 -1.35689 21.0662 25.7009 3.39946 -20.8545 0.0 0.0 0.0 0.0 0.0 
2473.59 744.012 -1191.27 -1.87078 59.6368 2.98033 0.671143 0.0753024 0.400864 0.671232 0.049642 0.404843 0.671616 -0.0317912 0.406635 0.671386 0.0328276 0.406552 -7.41201 19.3488 8.23888 -7.29744 30.2824 12.2251 -0.0 0.0 -0.0 5.02421 21.2479 9.72336 -26.8512 -16.1646 61.4005 1.11577 -28.9295 0.287835 -32.8341 -2.22328 3.49996 -0.517545 3.635 -1.89279 -0.0 0.0 -0.0 12.2055 19.8078 -24.4199 -14.0781 11.8264 -65.4668 0.91259 24.326 -0.196696 60.1055 1.78333 7.11766 -0.823992 -24.3518 -4.96947 0.0 0.0 0.0 3.29699 43.9451 -4.35717 -4.15854 0.148743 0.620736 19.6014 -19.3152 -2.99393 -24.0278 0.0 0.0 -0.0 0.0 -0.0 6.68742 5.95406 -0.125876 -8.212 -0.249998 -1.23442 22.3396 26.6775 3.61783 -20.485 0.0 0.0 0.0 0.0 0.0 
2472.24 744.833 -1191.18 -2.01947 59.3829 2.92601 0.713304 0.0813094 0.414902 0.713398 0.0547436 0.419235 0.713833 -0.0293401 0.421774 0.713587 0.0376389 0.421115 -6.41754 19.7383 7.96535 -6.21927 30.919 11.7883 -0.0 0.0 -0.0 4.99105 20.8535 9.68649 -26.5121 -16.1847 61.2196 1.07373 -28.0074 0.267792 -32.4655 -2.18781 3.46872 -0.555495 4.08134 -1.95126 -0.0 0.0 -0.0 12.3715 20.2222 -24.7729 -14.3987 11.7227 -65.5173 0.892209 23.8439 -0.188379 60.9442 1.85871 7.19434 -0.852062 -25.3817 -5.23481 0.0 0.0 0.0 3.22218 44.4509 -4.34835 -5.18203 0.178406 0.775007 20.0393 -18.8395 -3.04123 -23.6621 0.0 0.0 -0.0 0.0 -0.0 6.67988 6.00928 0.687667 -8.03037 -0.246393 -1.20678 22.116 27.1544 3.60639 -20.1347 0.0 0.0 0.0 0.0 0.0 
2470.24 742.995 -1189.47 -1.65683 58.8329 2.52284 0.689261 0.0526344 0.492984 0.689396 0.0211583 0.495334 0.689621 -0.0775353 0.489686 0.689286 0.000773528 0.495785 -5.6647 19.9352 7.54602 -5.40563 31.3708 11.2229 -0.0 0.0 -0.0 4.99271 20.5356 9.69808 -26.253 -16.3319 61.4926 1.04764 -27.4274 0.25566 -32.2092 -2.16325 3.44686 -0.571987 4.36838 -1.93634 -0.0 0.0 -0.0 12.3386 20.5702 -24.6711 -14.5195 11.6538 -65.4896 0.879314 23.537 -0.183198 61.5896 1.91748 7.2526 -0.876076 -26.1242 -5.40569 0.0 0.0 0.0 3.38594 44.8579 -4.40307 -5.91505 0.197953 0.885802 20.3637 -18.2554 -3.07007 -23.3953 0.0 0.0 -0.0 0.0 -0.0 6.48267 5.90741 0.793598 -8.34319 -0.252549 -1.25439 21.615 27.3827 3.54478 -20.016 0.0 0.0 0.0 0.0 0.0 
2470.34 743.363 -1187.48 -2.73585 58.6735 3.37946 0.772674 0.0230277 0.519657 0.772825 -0.0100857 0.520069 0.772768 -0.11233 0.507894 0.77241 -0.030709 0.51926 -6.0238 19.9185 7.45888 -5.80352 31.5111 11.2254 -0.0 0.0 -0.0 4.97353 20.0445 9.68283 -26.1176 -16.5291 61.6518 1.02606 -26.9426 0.245797 -31.8738 -2.13127 3.41808 -0.545015 4.49686 -1.70349 -0.0 0.0 -0.0 12.3541 20.792 -24.6901 -14.7053 11.5879 -65.5427 0.870615 23.3292 -0.179738 62.4276 1.99476 7.32726 -1.02313 -27.3877 -5.11492 0.0 0.0 0.0 3.11278 46.2817 -3.66334 -5.35099 0.183037 0.800524 20.701 -18.2633 -3.11541 -23.0717 0.0 0.0 -0.0 0.0 -0.0 6.5556 5.67179 1.0397 -7.2687 -0.230317 -1.09101 20.496 27.3944 3.38383 -20.2868 0.0 0.0 0.0 0.0 0.0 
2467.02 745.484 -1188.25 -2.78238 58.4053 3.1252 0.857055 0.0957087 0.556603 0.857225 0.0600972 0.561565 0.857868 -0.0508577 0.562477 0.857428 0.0386118 0.56345 -5.36154 20.1246 7.2667 -5.07675 31.8417 10.9026 -0.0 0.0 -0.0 4.89671 18.5616 9.60025 -26.7238 -16.3684 61.7811 1.01894 -26.782 0.242583 -31.7172 -2.1164 3.40459 -0.480641 4.31343 -1.3584 -0.0 0.0 -0.0 12.3185 20.6657 -24.6177 -14.8448 11.3875 -65.6802 0.861648 23.1143 -0.176202 62.6679 2.01712 7.34846 -0.907981 -27.1363 -5.64471 0.0 0.0 0.0 2.66893 45.8865 -3.1407 -6.62759 0.215594 0.993726 20.8291 -17.9991 -3.12576 -22.4638 0.0 0.0 -0.0 0.0 -0.0 7.17527 5.88922 1.47891 -8.65142 -0.258359 -1.30133 20.1767 28.3045 3.37431 -20.0182 0.0 0.0 0.0 0.0 0.0 
